<svg xmlns="http://www.w3.org/2000/svg" xmlns:xlink="http://www.w3.org/1999/xlink" width="1366" zoomAndPan="magnify" viewBox="0 0 1024.5 576" height="768" preserveAspectRatio="xMidYMid meet" version="1.0"><defs><clipPath id="79f18a6489"><path d="M 0 0.140625 L 1024 0.140625 L 1024 575.859375 L 0 575.859375 Z M 0 0.140625 " clip-rule="nonzero"/></clipPath><clipPath id="7f185d7d5b"><path d="M 60.246094 97.109375 L 169 97.109375 L 169 205.894531 L 60.246094 205.894531 Z M 60.246094 97.109375 " clip-rule="nonzero"/></clipPath><clipPath id="c5c48dfbbf"><path d="M 168.691406 151.5 C 168.691406 181.355469 144.492188 205.550781 114.644531 205.550781 C 84.796875 205.550781 60.589844 181.355469 60.589844 151.5 C 60.589844 121.644531 84.789062 97.449219 114.636719 97.449219 C 144.484375 97.449219 168.6875 121.652344 168.6875 151.5 " clip-rule="nonzero"/></clipPath><clipPath id="3b2fc65363"><path d="M 63.019531 212.789062 L 235.375 212.789062 L 235.375 478.550781 L 63.019531 478.550781 Z M 63.019531 212.789062 " clip-rule="nonzero"/></clipPath><clipPath id="bba972d35d"><path d="M 63.050781 278.945312 L 63.027344 278.945312 L 63.027344 279.75 C 63.015625 280.398438 63.027344 280.757812 63.027344 280.757812 L 63.027344 428.476562 C 63.027344 456.132812 85.449219 478.550781 113.109375 478.550781 C 140.765625 478.550781 163.183594 456.128906 163.183594 428.476562 L 163.121094 278.945312 C 159.664062 205.894531 235.25 223.082031 235.25 223.082031 C 73.5 185.027344 63.59375 265.691406 63.050781 278.945312 " clip-rule="nonzero"/></clipPath><clipPath id="05e0d8a42c"><path d="M 408 159.152344 L 466 159.152344 L 466 227.855469 L 408 227.855469 Z M 408 159.152344 " clip-rule="nonzero"/></clipPath><clipPath id="48fa3cc88e"><path d="M 429.449219 216.777344 C 443.589844 216.777344 450.128906 210.148438 450.128906 193.269531 C 450.128906 176.492188 443.691406 170.152344 429.449219 170.152344 L 423.5 170.152344 L 423.5 216.777344 Z M 408.28125 159.234375 L 429.835938 159.234375 C 452.757812 159.234375 465.726562 169.671875 465.726562 193.078125 C 465.726562 216.289062 452.660156 227.507812 429.449219 227.507812 L 408.28125 227.507812 Z M 408.28125 159.234375 " clip-rule="nonzero"/></clipPath><clipPath id="a57b25091d"><path d="M 473.417969 175.425781 L 505.355469 175.425781 L 505.355469 227.855469 L 473.417969 227.855469 Z M 473.417969 175.425781 " clip-rule="nonzero"/></clipPath><clipPath id="0a68ca5552"><path d="M 488.160156 190.542969 L 488.160156 227.507812 L 473.925781 227.507812 L 473.925781 176.304688 L 483.582031 176.304688 C 486.019531 176.304688 487.484375 177.375 487.972656 182.445312 C 491.191406 179.03125 495.871094 175.816406 502.210938 175.816406 C 503.285156 175.816406 504.359375 176.011719 505.328125 176.304688 L 505.328125 187.519531 L 502.886719 187.519531 C 495.863281 187.519531 490.886719 189.078125 488.160156 190.542969 " clip-rule="nonzero"/></clipPath><clipPath id="566783f7f0"><path d="M 503 212.183594 L 519.21875 212.183594 L 519.21875 228.457031 L 503 228.457031 Z M 503 212.183594 " clip-rule="nonzero"/></clipPath><clipPath id="e32b5de47a"><path d="M 503.183594 220.289062 C 503.183594 215.902344 506.691406 212.386719 511.179688 212.386719 C 515.566406 212.386719 519.171875 215.902344 519.171875 220.289062 C 519.171875 224.671875 515.566406 228.085938 511.179688 228.085938 C 506.691406 228.085938 503.183594 224.671875 503.183594 220.289062 " clip-rule="nonzero"/></clipPath><clipPath id="1adfb02dc0"><path d="M 546.335938 159.152344 L 618 159.152344 L 618 227.855469 L 546.335938 227.855469 Z M 546.335938 159.152344 " clip-rule="nonzero"/></clipPath><clipPath id="05bbc8bc07"><path d="M 546.675781 159.234375 L 567.15625 159.234375 L 582.367188 204.683594 L 582.65625 204.683594 L 597.785156 159.234375 L 617.976562 159.234375 L 617.976562 227.507812 L 602.957031 227.507812 L 602.957031 176.597656 L 602.660156 176.597656 L 585.394531 227.507812 L 576.226562 227.507812 L 559.253906 176.597656 L 558.960938 176.597656 L 558.960938 227.507812 L 546.675781 227.507812 Z M 546.675781 159.234375 " clip-rule="nonzero"/></clipPath><clipPath id="4f93373ae1"><path d="M 626.488281 175.425781 L 678.917969 175.425781 L 678.917969 228.457031 L 626.488281 228.457031 Z M 626.488281 175.425781 " clip-rule="nonzero"/></clipPath><clipPath id="98cbaad3b5"><path d="M 664.394531 202.246094 C 664.394531 191.128906 659.613281 185.664062 652.691406 185.664062 C 645.773438 185.664062 640.992188 191.128906 640.992188 202.246094 C 640.992188 213.265625 645.769531 218.042969 652.691406 218.042969 C 659.617188 218.042969 664.394531 213.265625 664.394531 202.246094 M 626.550781 202.148438 C 626.550781 185.664062 638.25 175.523438 652.691406 175.523438 C 667.132812 175.523438 678.824219 185.664062 678.824219 202.148438 C 678.824219 218.53125 667.121094 228.191406 652.691406 228.191406 C 638.265625 228.191406 626.550781 218.53125 626.550781 202.148438 " clip-rule="nonzero"/></clipPath><clipPath id="3f27564425"><path d="M 683.738281 175.425781 L 736.769531 175.425781 L 736.769531 228.457031 L 683.738281 228.457031 Z M 683.738281 175.425781 " clip-rule="nonzero"/></clipPath><clipPath id="86a3f0d211"><path d="M 721.738281 202.246094 C 721.738281 191.128906 716.960938 185.664062 710.03125 185.664062 C 703.097656 185.664062 698.328125 191.128906 698.328125 202.246094 C 698.328125 213.265625 703.105469 218.042969 710.03125 218.042969 C 716.957031 218.042969 721.738281 213.265625 721.738281 202.246094 M 683.890625 202.148438 C 683.890625 185.664062 695.59375 175.523438 710.03125 175.523438 C 724.464844 175.523438 736.175781 185.664062 736.175781 202.148438 C 736.175781 218.53125 724.472656 228.191406 710.03125 228.191406 C 695.589844 228.191406 683.890625 218.53125 683.890625 202.148438 " clip-rule="nonzero"/></clipPath><clipPath id="de148c8572"><path d="M 744.003906 175.425781 L 794 175.425781 L 794 243.523438 L 744.003906 243.523438 Z M 744.003906 175.425781 " clip-rule="nonzero"/></clipPath><clipPath id="27482f8736"><path d="M 758.3125 188.980469 L 758.3125 214.242188 C 760.757812 216.191406 763.773438 217.074219 767.480469 217.074219 C 773.726562 217.074219 779.089844 214.339844 779.089844 201.859375 C 779.089844 189.46875 774.015625 186.445312 767.96875 186.445312 C 765.148438 186.445312 761.238281 187.617188 758.3125 188.980469 M 758.3125 223.214844 L 758.3125 243.308594 L 744.070312 243.308594 L 744.070312 176.300781 L 753.726562 176.300781 C 756.070312 176.300781 757.4375 177.277344 758.015625 181.277344 C 761.824219 178.054688 766.703125 175.515625 773.820312 175.515625 C 783.667969 175.515625 793.523438 182.34375 793.523438 200.582031 C 793.523438 219.890625 782.503906 226.917969 771.089844 226.917969 C 765.535156 226.917969 761.535156 225.546875 758.3125 223.214844 " clip-rule="nonzero"/></clipPath><clipPath id="6f06f1a12c"><path d="M 798.84375 175.425781 L 847 175.425781 L 847 228.457031 L 798.84375 228.457031 Z M 798.84375 175.425781 " clip-rule="nonzero"/></clipPath><clipPath id="14433cd876"><path d="M 813.707031 196.492188 L 832.824219 196.492188 C 832.527344 187.417969 829.410156 184.492188 823.847656 184.492188 C 818.871094 184.492188 814.773438 186.929688 813.703125 196.492188 M 813.507812 205.074219 C 814.191406 215.3125 819.070312 218.148438 826.964844 218.148438 C 832.722656 218.148438 837.203125 216.292969 840.527344 213.851562 L 844.914062 213.851562 L 844.914062 223.21875 C 840.816406 225.558594 835.0625 228.191406 824.824219 228.191406 C 808.042969 228.191406 798.878906 218.242188 798.878906 202.148438 C 798.878906 185.667969 809.605469 175.523438 823.847656 175.523438 C 838.867188 175.523438 846.867188 183.816406 846.867188 200.683594 C 846.867188 202.4375 846.675781 204.585938 846.675781 205.074219 Z M 813.507812 205.074219 " clip-rule="nonzero"/></clipPath><clipPath id="0b19405b8f"><path d="M 854.285156 175.425781 L 901.292969 175.425781 L 901.292969 227.855469 L 854.285156 227.855469 Z M 854.285156 175.425781 " clip-rule="nonzero"/></clipPath><clipPath id="9c797808af"><path d="M 868.710938 181.765625 C 873.488281 178.253906 880.507812 175.523438 887.339844 175.523438 C 894.75 175.523438 901.089844 178.351562 901.089844 189.859375 L 901.089844 227.507812 L 886.855469 227.507812 L 886.855469 193.46875 C 886.855469 188.394531 884.90625 186.929688 880.515625 186.929688 C 876.125 186.929688 872.128906 188.097656 868.910156 189.269531 L 868.910156 227.503906 L 854.671875 227.503906 L 854.671875 176.300781 L 864.324219 176.300781 C 866.761719 176.300781 868.132812 177.375 868.714844 181.765625 " clip-rule="nonzero"/></clipPath><clipPath id="c84721d05d"><path d="M 907.320312 158.550781 L 923.589844 158.550781 L 923.589844 183.257812 L 907.320312 183.257812 Z M 907.320312 158.550781 " clip-rule="nonzero"/></clipPath><clipPath id="da7b7fbc84"><path d="M 907.914062 176.890625 C 911.816406 176.5 913.765625 175.039062 913.765625 173.378906 C 913.765625 171.625 912.402344 171.527344 910.839844 170.453125 C 909.085938 169.289062 908.011719 167.824219 908.011719 164.996094 C 908.011719 161.292969 911.136719 158.558594 915.328125 158.558594 C 919.617188 158.558594 923.421875 161.382812 923.421875 167.433594 C 923.421875 176.988281 918.453125 182.253906 907.914062 183.136719 Z M 907.914062 176.890625 " clip-rule="nonzero"/></clipPath><clipPath id="9a20f6964d"><path d="M 923.589844 175.425781 L 963.96875 175.425781 L 963.96875 228.457031 L 923.589844 228.457031 Z M 923.589844 175.425781 " clip-rule="nonzero"/></clipPath><clipPath id="954d8edd6a"><path d="M 924.304688 223.902344 L 924.304688 213.367188 L 928.792969 213.367188 C 931.132812 215.515625 935.421875 217.65625 941.375 217.65625 C 947.128906 217.65625 950.152344 216.09375 950.152344 212.878906 C 950.152344 209.753906 948.300781 208.296875 941.078125 207.414062 C 929.867188 206.046875 923.917969 201.851562 923.917969 191.808594 C 923.917969 181.46875 931.621094 175.714844 944.203125 175.714844 C 951.617188 175.714844 956.203125 177.175781 960.300781 179.226562 L 960.300781 189.566406 L 956.003906 189.566406 C 953.664062 187.808594 949.566406 186.152344 944.300781 186.152344 C 938.738281 186.152344 936.597656 187.808594 936.597656 190.734375 C 936.597656 193.371094 939.132812 194.734375 946.152344 195.609375 C 958.34375 197.171875 963.417969 201.164062 963.417969 211.511719 C 963.417969 221.554688 956.882812 228.09375 942.058594 228.09375 C 933.667969 228.09375 928.308594 226.144531 924.308594 223.902344 " clip-rule="nonzero"/></clipPath><clipPath id="1f2042b1b4"><path d="M 183 241.113281 L 962.761719 241.113281 L 962.761719 477.347656 L 183 477.347656 Z M 183 241.113281 " clip-rule="nonzero"/></clipPath><clipPath id="c812b530f6"><path d="M 183.046875 451.253906 C 183.046875 467.835938 192.359375 475.996094 207.699219 475.996094 C 223.042969 475.996094 232.445312 467.84375 232.445312 451.253906 L 232.445312 321.417969 L 233.066406 321.417969 L 322.1875 462.25 C 328.75 472.535156 334.070312 475.996094 350.390625 475.996094 C 371.9375 475.996094 380.71875 464.378906 380.71875 444.074219 L 380.71875 267.320312 C 380.71875 250.738281 371.320312 242.578125 355.976562 242.578125 C 340.71875 242.578125 331.320312 250.738281 331.320312 267.320312 L 331.320312 400.878906 L 330.699219 400.878906 L 240.867188 256.058594 C 235.28125 246.660156 225.882812 242.578125 215.234375 242.578125 C 193.332031 242.578125 183.046875 251.355469 183.046875 272.640625 Z M 403.582031 441.855469 C 403.582031 464.734375 415.464844 471.921875 433.648438 471.921875 L 556.554688 471.921875 C 571.628906 471.921875 582.539062 467.578125 582.539062 451.257812 C 582.539062 435.03125 571.628906 430.597656 556.554688 430.597656 L 454.929688 430.597656 L 454.929688 376.140625 L 541.921875 376.140625 C 555.3125 376.140625 565.953125 372.417969 565.953125 356.449219 C 565.953125 340.480469 555.3125 336.761719 541.921875 336.761719 L 454.929688 336.761719 L 454.929688 287.988281 L 554.078125 287.988281 C 569.0625 287.988281 580.058594 283.554688 580.058594 267.328125 C 580.058594 251.011719 569.0625 246.667969 554.078125 246.667969 L 433.640625 246.667969 C 415.460938 246.667969 403.578125 253.851562 403.578125 276.730469 Z M 666.773438 331.800781 C 650.453125 327.988281 631.742188 323.023438 631.742188 307.320312 C 631.742188 291.710938 644.867188 280.804688 668.636719 280.804688 C 716.527344 280.804688 712.09375 314.234375 735.859375 314.234375 C 748.457031 314.234375 759.363281 306.695312 759.363281 293.925781 C 759.363281 263.859375 712.09375 241.335938 672.097656 241.335938 C 628.558594 241.335938 582.265625 260.136719 582.265625 310.152344 C 582.265625 334.273438 590.777344 359.90625 637.339844 371.785156 L 695.25 386.503906 C 712.71875 390.84375 717.152344 400.867188 717.152344 409.914062 C 717.152344 424.988281 702.433594 439.714844 675.828125 439.714844 C 623.859375 439.714844 631.132812 399.007812 603.289062 399.007812 C 590.785156 399.007812 581.652344 407.785156 581.652344 420.289062 C 581.652344 444.679688 610.738281 477.222656 675.832031 477.222656 C 737.820312 477.222656 768.417969 446.890625 768.417969 406.1875 C 768.417969 379.933594 756.535156 352.089844 709.621094 341.445312 Z M 836.046875 450.367188 C 836.046875 465.621094 846.066406 475.996094 861.675781 475.996094 C 877.371094 475.996094 887.390625 465.621094 887.390625 450.367188 L 887.390625 289.847656 L 935.8125 289.847656 C 950.539062 289.847656 962.417969 282.304688 962.417969 268.207031 C 962.417969 254.195312 950.53125 246.660156 935.8125 246.660156 L 787.539062 246.660156 C 772.820312 246.660156 760.9375 254.203125 760.9375 268.207031 C 760.9375 282.3125 772.820312 289.847656 787.539062 289.847656 L 836.050781 289.847656 Z M 836.046875 450.367188 " clip-rule="nonzero"/></clipPath></defs><g clip-path="url(#79f18a6489)"><path fill="#ffffff" d="M 0 0.140625 L 1024 0.140625 L 1024 575.859375 L 0 575.859375 Z M 0 0.140625 " fill-opacity="1" fill-rule="nonzero"/><path fill="#f9fafb" d="M 0 0.140625 L 1024 0.140625 L 1024 575.859375 L 0 575.859375 Z M 0 0.140625 " fill-opacity="1" fill-rule="nonzero"/></g><g clip-path="url(#7f185d7d5b)"><g clip-path="url(#c5c48dfbbf)"><path fill="#36383e" d="M 57.570312 94.433594 L 171.707031 94.433594 L 171.707031 208.570312 L 57.570312 208.570312 Z M 57.570312 94.433594 " fill-opacity="1" fill-rule="nonzero"/><path fill="#36383e" d="M 57.570312 94.433594 L 171.707031 94.433594 L 171.707031 208.570312 L 57.570312 208.570312 Z M 57.570312 94.433594 " fill-opacity="1" fill-rule="nonzero"/></g></g><g clip-path="url(#3b2fc65363)"><g clip-path="url(#bba972d35d)"><path fill="#36383e" d="M 60.007812 155.535156 L 966.378906 155.535156 L 966.378906 481.566406 L 60.007812 481.566406 Z M 60.007812 155.535156 " fill-opacity="1" fill-rule="nonzero"/><path fill="#36383e" d="M 60.007812 155.535156 L 966.378906 155.535156 L 966.378906 481.566406 L 60.007812 481.566406 Z M 60.007812 155.535156 " fill-opacity="1" fill-rule="nonzero"/></g></g><g clip-path="url(#05e0d8a42c)"><g clip-path="url(#48fa3cc88e)"><path fill="#36383e" d="M 60.007812 155.535156 L 966.378906 155.535156 L 966.378906 481.566406 L 60.007812 481.566406 Z M 60.007812 155.535156 " fill-opacity="1" fill-rule="nonzero"/></g></g><g clip-path="url(#a57b25091d)"><g clip-path="url(#0a68ca5552)"><path fill="#36383e" d="M 60.007812 155.535156 L 966.378906 155.535156 L 966.378906 481.566406 L 60.007812 481.566406 Z M 60.007812 155.535156 " fill-opacity="1" fill-rule="nonzero"/></g></g><g clip-path="url(#566783f7f0)"><g clip-path="url(#e32b5de47a)"><path fill="#36383e" d="M 60.007812 155.535156 L 966.378906 155.535156 L 966.378906 481.566406 L 60.007812 481.566406 Z M 60.007812 155.535156 " fill-opacity="1" fill-rule="nonzero"/></g></g><g clip-path="url(#1adfb02dc0)"><g clip-path="url(#05bbc8bc07)"><path fill="#36383e" d="M 60.007812 155.535156 L 966.378906 155.535156 L 966.378906 481.566406 L 60.007812 481.566406 Z M 60.007812 155.535156 " fill-opacity="1" fill-rule="nonzero"/></g></g><g clip-path="url(#4f93373ae1)"><g clip-path="url(#98cbaad3b5)"><path fill="#36383e" d="M 60.007812 155.535156 L 966.378906 155.535156 L 966.378906 481.566406 L 60.007812 481.566406 Z M 60.007812 155.535156 " fill-opacity="1" fill-rule="nonzero"/></g></g><g clip-path="url(#3f27564425)"><g clip-path="url(#86a3f0d211)"><path fill="#36383e" d="M 60.007812 155.535156 L 966.378906 155.535156 L 966.378906 481.566406 L 60.007812 481.566406 Z M 60.007812 155.535156 " fill-opacity="1" fill-rule="nonzero"/></g></g><g clip-path="url(#de148c8572)"><g clip-path="url(#27482f8736)"><path fill="#36383e" d="M 60.007812 155.535156 L 966.378906 155.535156 L 966.378906 481.566406 L 60.007812 481.566406 Z M 60.007812 155.535156 " fill-opacity="1" fill-rule="nonzero"/></g></g><g clip-path="url(#6f06f1a12c)"><g clip-path="url(#14433cd876)"><path fill="#36383e" d="M 60.007812 155.535156 L 966.378906 155.535156 L 966.378906 481.566406 L 60.007812 481.566406 Z M 60.007812 155.535156 " fill-opacity="1" fill-rule="nonzero"/></g></g><g clip-path="url(#0b19405b8f)"><g clip-path="url(#9c797808af)"><path fill="#36383e" d="M 60.007812 155.535156 L 966.378906 155.535156 L 966.378906 481.566406 L 60.007812 481.566406 Z M 60.007812 155.535156 " fill-opacity="1" fill-rule="nonzero"/></g></g><g clip-path="url(#c84721d05d)"><g clip-path="url(#da7b7fbc84)"><path fill="#36383e" d="M 60.007812 155.535156 L 966.378906 155.535156 L 966.378906 481.566406 L 60.007812 481.566406 Z M 60.007812 155.535156 " fill-opacity="1" fill-rule="nonzero"/></g></g><g clip-path="url(#9a20f6964d)"><g clip-path="url(#954d8edd6a)"><path fill="#36383e" d="M 60.007812 155.535156 L 966.378906 155.535156 L 966.378906 481.566406 L 60.007812 481.566406 Z M 60.007812 155.535156 " fill-opacity="1" fill-rule="nonzero"/></g></g><g clip-path="url(#1f2042b1b4)"><g clip-path="url(#c812b530f6)"><path fill="#36383e" d="M 60.007812 155.535156 L 966.378906 155.535156 L 966.378906 481.566406 L 60.007812 481.566406 Z M 60.007812 155.535156 " fill-opacity="1" fill-rule="nonzero"/></g></g></svg>