<svg xmlns="http://www.w3.org/2000/svg" xmlns:xlink="http://www.w3.org/1999/xlink" width="472" height="153" viewBox="0 0 472 153">
  <defs>
    <clipPath id="clip-path">
      <rect id="Rectangle_16494" data-name="Rectangle 16494" width="472" height="153" transform="translate(1422 237)" fill="none" stroke="#707070" stroke-width="1"/>
    </clipPath>
    <clipPath id="clip-path-2">
      <path id="path20" d="M5.685,0H533.144V-207.042H5.685Z"/>
    </clipPath>
    <clipPath id="clip-path-3">
      <path id="path56" d="M0-217.791H550.743V0H0Z"/>
    </clipPath>
  </defs>
  <g id="site_logo_fiinal" transform="translate(-1422 -237)" clip-path="url(#clip-path)">
    <g id="g10" transform="translate(1380.727 424.202)">
      <g id="g12" transform="translate(200.975 -129.041)">
        <path id="path14" d="M0,0H-8.067V-29.139L-18.219-9.949l-2.032,3.843-1.875-3.544-2.5-4.732-7.76-14.669V0H-40.5V-39.856h11.153l9.1,17.2,9.091-17.184.007-.015H0Z" fill="#00a650"/>
      </g>
      <g id="g16">
        <g id="g18" clip-path="url(#clip-path-2)">
          <g id="g24" transform="translate(245.138 -129.041)">
            <path id="path26" d="M0,0H-9.781l-2.836-8.871H-26.792L-29.6,0h-9.733l14.515-39.856h10.645ZM-14.677-15.759l-4.279-13.4a17.915,17.915,0,0,1-.673-3.585h-.217a15.356,15.356,0,0,1-.693,3.472l-4.336,13.509Z" fill="#00a650"/>
          </g>
          <g id="g28" transform="translate(283.551 -129.041)">
            <path id="path30" d="M0,0H-10.312l-6.2-10.256c-.464-.777-.911-1.471-1.337-2.087a11.659,11.659,0,0,0-1.291-1.565A5.3,5.3,0,0,0-20.5-14.915a3.52,3.52,0,0,0-1.537-.34h-2.42V0h-8.984V-39.856h14.231Q-4.7-39.856-4.7-29.021a11.205,11.205,0,0,1-.645,3.852,10.8,10.8,0,0,1-1.8,3.188,11.535,11.535,0,0,1-2.819,2.437,14.4,14.4,0,0,1-3.691,1.613v.113a5.8,5.8,0,0,1,1.727.9,12.093,12.093,0,0,1,1.613,1.461,21.462,21.462,0,0,1,1.489,1.793c.473.635.9,1.261,1.291,1.879ZM-24.459-33.129v11.091h3.891a6.452,6.452,0,0,0,4.639-1.671A5.565,5.565,0,0,0-14.145-27.9c0-3.492-2.087-5.228-6.252-5.228Z" fill="#00a650"/>
          </g>
          <g id="g32" transform="translate(301.141 -130.568)">
            <path id="path34" d="M0,0V-8.9A17.025,17.025,0,0,0,5.255-5.853a16.934,16.934,0,0,0,5.721,1.015,13.005,13.005,0,0,0,2.96-.3,7.121,7.121,0,0,0,2.116-.845,3.687,3.687,0,0,0,1.261-1.281,3.125,3.125,0,0,0,.419-1.6,3.419,3.419,0,0,0-.664-2.077,7.181,7.181,0,0,0-1.821-1.7,17.97,17.97,0,0,0-2.743-1.5q-1.58-.726-3.416-1.48a17.306,17.306,0,0,1-6.963-4.753A10.354,10.354,0,0,1-.161-27.152,10.781,10.781,0,0,1,1.081-32.5a10.688,10.688,0,0,1,3.405-3.692,15.532,15.532,0,0,1,4.991-2.124,25.513,25.513,0,0,1,6.005-.673,36.437,36.437,0,0,1,5.512.369,21.44,21.44,0,0,1,4.44,1.157v8.311a13.556,13.556,0,0,0-2.183-1.224,18.242,18.242,0,0,0-2.437-.881,19.409,19.409,0,0,0-2.485-.513,18.8,18.8,0,0,0-2.344-.161,12.549,12.549,0,0,0-2.78.285,7.361,7.361,0,0,0-2.116.825,4.2,4.2,0,0,0-1.337,1.261,3.011,3.011,0,0,0-.464,1.651,3.136,3.136,0,0,0,.521,1.793,6.045,6.045,0,0,0,1.5,1.508,17.136,17.136,0,0,0,2.373,1.387c.919.455,1.972.919,3.139,1.4A34.752,34.752,0,0,1,21.109-19.7a15.218,15.218,0,0,1,3.263,2.543,10,10,0,0,1,2.088,3.245,11.341,11.341,0,0,1,.721,4.231,11.369,11.369,0,0,1-1.263,5.607A10.159,10.159,0,0,1,22.484-.408a14.739,14.739,0,0,1-5.047,2.02,29,29,0,0,1-6.072.608,33.739,33.739,0,0,1-6.233-.551A18.818,18.818,0,0,1,0,0M57.472,1.528H33.737V-38.328H42.72V-5.759H57.472Zm29.269,0H62.833V-38.328H85.82v7.305h-14v8.869H84.853v7.277H71.817v9.117H86.741Zm30.292,0H93.126V-38.328h22.987v7.305h-14v8.869h13.035v7.277H102.11v9.117h14.923ZM156.89-38.328,143.152,1.528H132.981L119.416-38.328h9.676l8.311,27.74a19.724,19.724,0,0,1,.807,3.976h.161a22.551,22.551,0,0,1,.864-4.089l8.253-27.627ZM193.765,1.528h-9.78l-2.837-8.871H166.973l-2.807,8.871h-9.735l14.516-39.856h10.644ZM179.089-14.231l-4.279-13.4a17.929,17.929,0,0,1-.673-3.587h-.219a15.353,15.353,0,0,1-.692,3.472L168.89-14.231Z" fill="#00a650"/>
          </g>
          <g id="g36" transform="translate(200.315 -81.097)">
            <path id="path38" d="M0,0H-7.721V-14.312q0-5.458-4.015-5.463a3.7,3.7,0,0,0-3.112,1.639,6.742,6.742,0,0,0-1.2,4.092V0h-7.737V-14.464c0-3.537-1.323-5.311-3.949-5.311a3.768,3.768,0,0,0-3.171,1.565,6.893,6.893,0,0,0-1.2,4.265V0h-7.737V-25.095h7.737v3.923h.1a9.235,9.235,0,0,1,3.371-3.271,9.244,9.244,0,0,1,4.744-1.263q5.32,0,7.277,4.676a9.279,9.279,0,0,1,8.431-4.676Q0-25.705,0-15.609ZM28.676-10.339H12.305q.388,5.458,6.884,5.463a13.462,13.462,0,0,0,7.279-1.957v5.587A19.141,19.141,0,0,1,17.424.611q-6.072,0-9.435-3.371T4.635-12.153q0-6.25,3.629-9.905a12.077,12.077,0,0,1,8.919-3.647q5.482,0,8.489,3.253t3,8.851ZM21.5-15.1q0-5.384-4.367-5.387a4.157,4.157,0,0,0-3.22,1.539A7.028,7.028,0,0,0,12.255-15.1ZM57.836,0H50.091V-3.455H50A8.7,8.7,0,0,1,42.227.611a9.495,9.495,0,0,1-7.569-3.32q-2.874-3.312-2.869-9.277,0-6.224,3.161-9.972a10.3,10.3,0,0,1,8.281-3.747q4.856,0,6.768,3.48h.092V-37.149h7.745ZM50.241-12.2v-1.891a5.946,5.946,0,0,0-1.423-4.065,4.683,4.683,0,0,0-3.7-1.615A4.671,4.671,0,0,0,41.1-17.759,9.439,9.439,0,0,0,39.651-12.2a8.11,8.11,0,0,0,1.4,5.093A4.641,4.641,0,0,0,44.92-5.32,4.664,4.664,0,0,0,48.76-7.2a7.892,7.892,0,0,0,1.481-5M68.109-29.068A4.533,4.533,0,0,1,64.9-30.231a3.733,3.733,0,0,1-1.245-2.852A3.6,3.6,0,0,1,64.9-35.927a4.682,4.682,0,0,1,3.213-1.105,4.642,4.642,0,0,1,3.22,1.105,3.62,3.62,0,0,1,1.237,2.844,3.728,3.728,0,0,1-1.237,2.893,4.613,4.613,0,0,1-3.22,1.121M71.856-8.507a3.426,3.426,0,0,0,.761,2.417,2.66,2.66,0,0,0,2.033.82,6.456,6.456,0,0,0,1.271-.125c.427-.076.855-.16,1.28-.244V-.192A27.793,27.793,0,0,1,74.248.4,21.49,21.49,0,0,1,71,.637,7.4,7.4,0,0,1,68.193.127a6.016,6.016,0,0,1-2.16-1.489A6.783,6.783,0,0,1,64.653-3.7a9.236,9.236,0,0,1-.492-3.1v-18.3h7.695ZM99.477-.9Q96.855.615,91.906.611a12.777,12.777,0,0,1-9.36-3.505,12.1,12.1,0,0,1-3.58-9.041q0-6.4,3.831-10.081t10.264-3.688q4.43,0,6.416,1.172v6.573a8.8,8.8,0,0,0-5.412-1.815,7.134,7.134,0,0,0-5.288,1.949,7.274,7.274,0,0,0-1.947,5.379,7.164,7.164,0,0,0,1.864,5.228,6.828,6.828,0,0,0,5.12,1.9,10.179,10.179,0,0,0,5.663-1.816ZM108.3-29.068a4.532,4.532,0,0,1-3.212-1.163,3.735,3.735,0,0,1-1.247-2.852,3.6,3.6,0,0,1,1.247-2.844,4.681,4.681,0,0,1,3.212-1.105,4.639,4.639,0,0,1,3.22,1.105,3.621,3.621,0,0,1,1.239,2.844,3.729,3.729,0,0,1-1.239,2.893,4.611,4.611,0,0,1-3.22,1.121M112.05-8.507a3.419,3.419,0,0,0,.761,2.417,2.659,2.659,0,0,0,2.032.82,6.436,6.436,0,0,0,1.271-.125c.428-.076.855-.16,1.28-.244V-.192A27.767,27.767,0,0,1,114.442.4,21.5,21.5,0,0,1,111.2.637a7.409,7.409,0,0,1-2.811-.511,6.011,6.011,0,0,1-2.159-1.489,6.762,6.762,0,0,1-1.38-2.333,9.2,9.2,0,0,1-.493-3.1v-18.3h7.7ZM135.824-.293a11.492,11.492,0,0,1-5.169.9q-8.182,0-8.189-8.5V-19.381H118.4v-5.713h4.067v-5.412l7.72-2.209v7.621h5.639v5.713h-5.639V-9.244q0,3.928,3.112,3.924a5.229,5.229,0,0,0,2.527-.709Zm28.257-24.8-10.2,27.1q-3.676,9.786-11.075,9.779a14.176,14.176,0,0,1-4.636-.636V4.977a6.544,6.544,0,0,0,3.364.9A4.2,4.2,0,0,0,145.7,3.063l1.321-3.112-10.2-25.045h8.583l4.676,15.267a19.634,19.634,0,0,1,.687,3.361h.1a23.374,23.374,0,0,1,.811-3.312l4.725-15.316Zm24.8,22.176h-.1V11.544h-7.737V-25.095h7.737v3.773h.1a9.112,9.112,0,0,1,8.063-4.384,9.07,9.07,0,0,1,7.539,3.345q2.658,3.338,2.659,9.1,0,6.272-3.1,10.069a10.1,10.1,0,0,1-8.249,3.8,7.806,7.806,0,0,1-6.908-3.529m-.217-10.289V-11.2a6.364,6.364,0,0,0,1.371,4.24,4.458,4.458,0,0,0,3.605,1.64,4.74,4.74,0,0,0,4.1-2.041,9.883,9.883,0,0,0,1.465-5.8c0-4.419-1.724-6.617-5.153-6.617a4.845,4.845,0,0,0-3.883,1.8,7.2,7.2,0,0,0-1.5,4.768M232.555,0h-7.327V-3.605h-.1A8.176,8.176,0,0,1,217.659.611,7.833,7.833,0,0,1,211.9-1.455a7.43,7.43,0,0,1-2.091-5.529q0-7.3,8.649-8.433l6.816-.9q0-4.116-4.465-4.115a15.212,15.212,0,0,0-8.525,2.668V-23.6a19.1,19.1,0,0,1,4.427-1.473,23.146,23.146,0,0,1,5.111-.635q10.728,0,10.731,10.707Zm-7.277-10.2v-1.691l-4.557.585q-3.778.49-3.773,3.413a2.811,2.811,0,0,0,.912,2.167,3.564,3.564,0,0,0,2.492.845,4.592,4.592,0,0,0,3.556-1.507,5.454,5.454,0,0,0,1.371-3.813m20.905,1.689a3.425,3.425,0,0,0,.761,2.417,2.658,2.658,0,0,0,2.033.82,6.456,6.456,0,0,0,1.271-.125c.427-.076.853-.16,1.28-.244V-.192A27.792,27.792,0,0,1,248.575.4a21.5,21.5,0,0,1-3.244.235,7.415,7.415,0,0,1-2.812-.511,6,6,0,0,1-2.157-1.489A6.764,6.764,0,0,1,238.981-3.7a9.236,9.236,0,0,1-.492-3.1V-37.149h7.695ZM275.67,0h-7.328V-3.605h-.1A8.176,8.176,0,0,1,260.773.611a7.833,7.833,0,0,1-5.756-2.065,7.43,7.43,0,0,1-2.091-5.529q0-7.3,8.649-8.433l6.817-.9q0-4.116-4.467-4.115a15.2,15.2,0,0,0-8.524,2.668V-23.6a19.07,19.07,0,0,1,4.425-1.473,23.146,23.146,0,0,1,5.111-.635q10.728,0,10.732,10.707Zm-7.277-10.2v-1.691l-4.56.585q-3.776.49-3.772,3.413a2.811,2.811,0,0,0,.912,2.167,3.568,3.568,0,0,0,2.493.845,4.59,4.59,0,0,0,3.555-1.507,5.454,5.454,0,0,0,1.372-3.813M285.55-29.068a4.533,4.533,0,0,1-3.213-1.163,3.733,3.733,0,0,1-1.245-2.852,3.6,3.6,0,0,1,1.245-2.844,4.682,4.682,0,0,1,3.213-1.105,4.642,4.642,0,0,1,3.22,1.105,3.62,3.62,0,0,1,1.237,2.844,3.728,3.728,0,0,1-1.237,2.893,4.613,4.613,0,0,1-3.22,1.121M289.3-8.507a3.425,3.425,0,0,0,.761,2.417,2.659,2.659,0,0,0,2.033.82,6.456,6.456,0,0,0,1.271-.125c.427-.076.855-.16,1.28-.244V-.192A27.833,27.833,0,0,1,291.69.4a21.52,21.52,0,0,1-3.247.235,7.406,7.406,0,0,1-2.809-.511,6,6,0,0,1-2.159-1.489A6.761,6.761,0,0,1,282.1-3.7a9.2,9.2,0,0,1-.493-3.1v-18.3H289.3Z" fill="#c91e25"/>
          </g>
          <g id="g40" transform="translate(92.68 -168.962)">
            <path id="path42" d="M0,0A49.957,49.957,0,0,1,49.957,49.957,49.958,49.958,0,0,1,0,99.914,49.958,49.958,0,0,1-49.957,49.957,49.957,49.957,0,0,1,0,0" fill="#c91e25" fill-rule="evenodd"/>
          </g>
          <g id="g44" transform="translate(92.497 -145.953)">
            <path id="path46" d="M0,0A2.3,2.3,0,0,0-.229-.649c-.869-1.116-.944-1.224-.68-2.669.131-.709-.213-.992-.852-.968a12.392,12.392,0,0,0-1.591.213C-4.336-3.9-5.357-3.837-6.031-5A29.865,29.865,0,0,1-7.156-7.775,7.866,7.866,0,0,0-9-10.407a.457.457,0,0,1-.12-.312c0-.385.613-.479.984-.479A7,7,0,0,1-4.261-9.823c.759.491,1.913,1.471,2.741.577a1.579,1.579,0,0,0,.356-1.136,10.168,10.168,0,0,0-1.652-4.375h.056a7.232,7.232,0,0,1,2.941-.675h0a7.222,7.222,0,0,1,2.941.675H3.18a10.185,10.185,0,0,0-1.652,4.375,1.58,1.58,0,0,0,.357,1.136c.828.893,1.983-.087,2.74-.577A7,7,0,0,1,8.5-11.2c.372,0,.985.093.985.479a.463.463,0,0,1-.12.312A7.866,7.866,0,0,0,7.521-7.775,29.865,29.865,0,0,1,6.4-5c-.673,1.163-1.7,1.1-2.679.927a12.392,12.392,0,0,0-1.591-.213c-.639-.024-.983.259-.852.968.264,1.445.188,1.553-.681,2.669A2.391,2.391,0,0,0,.364,0,1.6,1.6,0,0,1,1.785,1.592,1.593,1.593,0,0,1,1.412,2.62,3.881,3.881,0,0,1,4.061,6.3a3.872,3.872,0,0,1-.311,1.524,3.831,3.831,0,0,1,2.66-1.071,3.768,3.768,0,0,1,3.819,3.657A3.526,3.526,0,0,1,3.463,11.8a18.7,18.7,0,0,0-.573,6.679A2.861,2.861,0,0,0,5.4,20.892a18.274,18.274,0,0,0,6.461-.661,3.526,3.526,0,0,1,1.132-6.865,3.768,3.768,0,0,1,3.657,3.819,3.826,3.826,0,0,1-1.071,2.66,3.885,3.885,0,0,1,5.205,2.339,1.6,1.6,0,1,1,0,2.459,3.881,3.881,0,0,1-5.205,2.339,3.841,3.841,0,0,1,.391,4.843A3.526,3.526,0,1,1,11.853,26.6a15.294,15.294,0,0,0-4.888-.68v.013c-4.952-.2-4.22,6.269-4.1,9.6.181,1.968.421,3.851.715,5.621a3.526,3.526,0,0,1,6.649,1.635,3.769,3.769,0,0,1-3.819,3.659,3.831,3.831,0,0,1-2.66-1.071A3.872,3.872,0,0,1,4.061,46.9a3.881,3.881,0,0,1-2.649,3.681,1.578,1.578,0,0,1,.339.7c2.516.164,4.509.712,5.165,1.415v.789a11.574,11.574,0,0,1,4.12,1.457v.964a32.863,32.863,0,0,1,4.288.948v5.361A56.545,56.545,0,0,1,.183,63.949,56.556,56.556,0,0,1-14.96,62.215V56.853a32.911,32.911,0,0,1,4.288-.948v-.964a11.584,11.584,0,0,1,4.12-1.457v-.789c.657-.7,2.651-1.251,5.165-1.415a1.581,1.581,0,0,1,.34-.7A3.883,3.883,0,0,1-3.7,46.9a3.891,3.891,0,0,1,.311-1.524,3.826,3.826,0,0,1-2.66,1.071,3.82,3.82,0,0,1-2.181-.681,3.523,3.523,0,0,1-1.637-2.977A3.526,3.526,0,0,1-6.34,39.263a3.527,3.527,0,0,1,3.213,2.071c.305-1.823.556-3.767.744-5.8.12-3.332.852-9.807-4.1-9.6v-.012a14.942,14.942,0,0,0-4.911.713,3.524,3.524,0,0,1,2.292,3.3,3.525,3.525,0,0,1-3.525,3.525A3.523,3.523,0,0,1-15.6,31.823a3.82,3.82,0,0,1-.68-2.183,3.83,3.83,0,0,1,1.069-2.66,3.84,3.84,0,0,1-1.524.312,3.882,3.882,0,0,1-3.68-2.651,1.594,1.594,0,0,1-1.028.375,1.6,1.6,0,0,1-1.6-1.6,1.6,1.6,0,0,1,1.6-1.6,1.593,1.593,0,0,1,1.028.373,3.881,3.881,0,0,1,3.68-2.649,3.867,3.867,0,0,1,1.524.311,3.825,3.825,0,0,1-1.069-2.66,3.768,3.768,0,0,1,3.657-3.819A3.525,3.525,0,0,1-9.1,16.891,3.527,3.527,0,0,1-11.4,20.2a17.454,17.454,0,0,0,6.3.7,2.862,2.862,0,0,0,2.58-2.417A18.706,18.706,0,0,0-3.1,11.8,3.53,3.53,0,0,1-6.34,13.939a3.526,3.526,0,0,1-3.525-3.527A3.523,3.523,0,0,1-8.228,7.435a3.819,3.819,0,0,1,2.181-.68,3.826,3.826,0,0,1,2.66,1.071A3.9,3.9,0,0,1-3.7,6.3,3.883,3.883,0,0,1-1.047,2.62,1.593,1.593,0,0,1-1.42,1.592,1.6,1.6,0,0,1,0,0M8.941,51.224a15.3,15.3,0,0,0,5.507-4.609c2.167-3.089,1.364-3.695,2.68-4.081a9.653,9.653,0,0,1,6.5.5,14.376,14.376,0,0,1-6.208,6.207,19.435,19.435,0,0,1-8.481,1.98m1.921,1.031c13.9-3.417,12.043,7.127,18.337,7.7-1.864,4.4-8.492,4.98-11.544,3.224a9.121,9.121,0,0,0-.916-6.705,10.349,10.349,0,0,0-5.877-4.215m-2.02-2.236c2.761-3.267,3.2-7.88,5.432-11.928a10.137,10.137,0,0,1,3.335-3.805,5.967,5.967,0,0,1,5.589-.469,4.247,4.247,0,0,1,2.093,5.092h-.005a3.4,3.4,0,0,1-3.149,2.46,3.587,3.587,0,0,1-.648-.039,3.029,3.029,0,0,1-2.708-2.907,3.11,3.11,0,0,1,.06-.709c-1.657.723-2.692,2.42-3.559,4.187-1.553,3.168-2.835,6.517-6.44,8.119M-8.576,51.224a15.287,15.287,0,0,1-5.507-4.609c-2.167-3.089-1.365-3.695-2.681-4.081a9.649,9.649,0,0,0-6.5.5,14.376,14.376,0,0,0,6.208,6.207,19.435,19.435,0,0,0,8.481,1.98M-10.5,52.255c-13.9-3.417-12.043,7.127-18.337,7.7,1.864,4.4,8.493,4.98,11.545,3.224a9.121,9.121,0,0,1,.916-6.705A10.348,10.348,0,0,1-10.5,52.255m2.02-2.236c-2.76-3.267-3.195-7.88-5.432-11.928a10.134,10.134,0,0,0-3.333-3.805,5.967,5.967,0,0,0-5.589-.469,4.241,4.241,0,0,0-2.3,3.628,4.233,4.233,0,0,0,.207,1.464h.005a3.4,3.4,0,0,0,3.149,2.46,3.6,3.6,0,0,0,.648-.039,3.027,3.027,0,0,0,2.707-2.907,3.036,3.036,0,0,0-.059-.709c1.657.723,2.692,2.42,3.559,4.187,1.552,3.168,2.833,6.517,6.439,8.119" fill="#fff" fill-rule="evenodd"/>
          </g>
          <g id="g48" transform="translate(315.179 -40.478)">
            <path id="path50" d="M0,0-.5-3.324H-6.144L-8,0h-2.412l9.22-15.977h.569L2.5,0ZM-1.691-11.64l-3.6,6.733H-.72Zm19.809-2.187L15.688,0H13.48l2.432-13.827H10.9l.345-1.935h12.4L23.3-13.827Zm4.551,8.384a5.5,5.5,0,0,0-.1.988,2.884,2.884,0,0,0,.8,2.185,3.073,3.073,0,0,0,2.225.763,4.35,4.35,0,0,0,2.56-.935L27.943-.357A9.763,9.763,0,0,1,24.9.216q-4.458,0-4.456-4.993a7,7,0,0,1,1.869-4.947,6.163,6.163,0,0,1,4.716-2.013,4.6,4.6,0,0,1,2.732.732A2.414,2.414,0,0,1,30.781-8.92a3.416,3.416,0,0,1-1.589,2.971,6.787,6.787,0,0,1-3.908,1.088,5.414,5.414,0,0,1-2.615-.581m.356-1.487a4.647,4.647,0,0,0,1.924.367,6.028,6.028,0,0,0,2.744-.543,1.714,1.714,0,0,0,1.064-1.588c0-.881-.609-1.325-1.829-1.325q-2.786,0-3.9,3.089M45.136,0l1.288-7.293a4.665,4.665,0,0,0,.077-.831A1.68,1.68,0,0,0,44.6-10.019a2.712,2.712,0,0,0-1.413.437A3.021,3.021,0,0,0,42.1-8.52L40.593,0H38.5l1.455-8.189a2.181,2.181,0,0,0,.029-.331c0-1-.675-1.5-2.031-1.5a2.6,2.6,0,0,0-1.367.475A3.712,3.712,0,0,0,35.441-8.5L33.935,0H31.849l1.484-8.4A6.059,6.059,0,0,0,33.4-9.413a7.216,7.216,0,0,0-.213-1.939l1.991-.373A8.477,8.477,0,0,1,35.4-10.22a2.893,2.893,0,0,1,1.424-1.109,5.42,5.42,0,0,1,2.072-.408c1.644,0,2.705.511,3.188,1.54A3.408,3.408,0,0,1,43.564-11.3a5.051,5.051,0,0,1,2-.433q3.128,0,3.129,2.989A5.782,5.782,0,0,1,48.6-7.7L47.233,0Zm7.1-.581-.9,5.153H49.285L51.544-8.08a8.886,8.886,0,0,0,.151-1.625,7.548,7.548,0,0,0-.163-1.591l2.057-.389a13.3,13.3,0,0,1,.195,1.477,3.781,3.781,0,0,1,1.451-1.051A4.349,4.349,0,0,1,57-11.685a4.39,4.39,0,0,1,3.22,1.065,4.354,4.354,0,0,1,1.073,3.205,8.345,8.345,0,0,1-1.816,5.479A5.858,5.858,0,0,1,54.72.268,5.093,5.093,0,0,1,53.263.023a1.728,1.728,0,0,1-1.028-.6m.3-1.688a1.5,1.5,0,0,0,.787.58,2.96,2.96,0,0,0,1.105.235A4.2,4.2,0,0,0,57.9-2.973,6.466,6.466,0,0,0,59.12-7.132,2.858,2.858,0,0,0,58.4-9.257a2.945,2.945,0,0,0-2.145-.707,3.223,3.223,0,0,0-1.451.437,3.357,3.357,0,0,0-1.164.908Zm14.451.976L66.748.216q-3.454,0-3.452-2.563A23.817,23.817,0,0,1,63.831-5.8L65.9-16.247h2.129L66.061-6.433A27.4,27.4,0,0,0,65.448-2.6c0,.875.511,1.311,1.537,1.311m5.143-4.149a5.506,5.506,0,0,0-.1.988,2.885,2.885,0,0,0,.8,2.185,3.071,3.071,0,0,0,2.225.763,4.353,4.353,0,0,0,2.56-.935L77.4-.357a9.77,9.77,0,0,1-3.044.573Q69.9.216,69.9-4.777A7,7,0,0,1,71.77-9.724a6.16,6.16,0,0,1,4.715-2.013,4.6,4.6,0,0,1,2.733.732A2.417,2.417,0,0,1,80.24-8.92a3.412,3.412,0,0,1-1.591,2.971,6.783,6.783,0,0,1-3.907,1.088,5.414,5.414,0,0,1-2.615-.581m.355-1.487a4.658,4.658,0,0,0,1.925.367,6.019,6.019,0,0,0,2.743-.543,1.715,1.715,0,0,0,1.065-1.588c0-.881-.609-1.325-1.829-1.325q-2.788,0-3.9,3.089m15.56,2.691a8.086,8.086,0,0,1,1.807-5.295,5.686,5.686,0,0,1,4.595-2.2A4.274,4.274,0,0,1,97.649-10.6a4.414,4.414,0,0,1,1.108,3.22,9.911,9.911,0,0,1-.66,3.444A6.67,6.67,0,0,1,95.934-.971a5.631,5.631,0,0,1-3.6,1.187A4.178,4.178,0,0,1,89.152-.952a4.577,4.577,0,0,1-1.109-3.287m2.152-.128q0,2.914,2.443,2.912a3.25,3.25,0,0,0,2.887-1.763,7.672,7.672,0,0,0,1.071-4.076q0-2.776-2.441-2.776a3.09,3.09,0,0,0-2.179.881,5.041,5.041,0,0,0-1.361,2.259,8.862,8.862,0,0,0-.419,2.563m18.559-9.963a3.993,3.993,0,0,0-1.269-.3q-1.944,0-2.487,3.107h2.671l-.173,1.411h-2.7L102.977.752a3.988,3.988,0,0,1-1.4,2.48,5.233,5.233,0,0,1-2.767,1.156L98.63,3.133a2.6,2.6,0,0,0,1.321-.875A3.067,3.067,0,0,0,100.77.752l1.907-10.865h-1.628l.24-1.411h1.577q.95-4.72,4.745-4.723a3.282,3.282,0,0,1,1.528.324ZM124.388,0l1.344-7.616h-6.885L117.5,0h-2.217l2.787-15.761h2.219l-1.12,6.316h6.885l1.12-6.316h2.192L126.58,0Zm7.939-5.443a5.5,5.5,0,0,0-.095.988,2.884,2.884,0,0,0,.8,2.185,3.071,3.071,0,0,0,2.225.763,4.356,4.356,0,0,0,2.56-.935L137.6-.357a9.756,9.756,0,0,1-3.044.573q-4.458,0-4.455-4.993a7,7,0,0,1,1.869-4.947,6.161,6.161,0,0,1,4.716-2.013,4.594,4.594,0,0,1,2.731.732,2.414,2.414,0,0,1,1.021,2.085,3.411,3.411,0,0,1-1.589,2.971,6.784,6.784,0,0,1-3.908,1.088,5.422,5.422,0,0,1-2.615-.581m.357-1.487a4.643,4.643,0,0,0,1.924.367,6.019,6.019,0,0,0,2.743-.543,1.715,1.715,0,0,0,1.065-1.588c0-.881-.611-1.325-1.829-1.325q-2.788,0-3.9,3.089M152.136-10.8l-1.411,6.7a4.982,4.982,0,0,0-.085.988A8.983,8.983,0,0,0,151.165,0H149.08a6.38,6.38,0,0,1-.368-1.16,3.53,3.53,0,0,1-1.505.995,5.906,5.906,0,0,1-2.119.381,3.487,3.487,0,0,1-2.652-1.007,4.046,4.046,0,0,1-.951-2.889,9,9,0,0,1,1.867-5.611,5.781,5.781,0,0,1,4.8-2.447,6.592,6.592,0,0,1,3.981.936m-2.26,1.195c-.193-.309-.848-.463-1.957-.463a3.677,3.677,0,0,0-2.993,1.807,7.594,7.594,0,0,0-1.287,4.516c0,1.528.677,2.292,2.041,2.292a2.647,2.647,0,0,0,2-1.1,6.31,6.31,0,0,0,1.3-2.824Zm7.779,8.313L157.416.216q-3.454,0-3.452-2.563A23.7,23.7,0,0,1,154.5-5.8l2.068-10.448H158.7l-1.968,9.813a27.4,27.4,0,0,0-.613,3.829c0,.875.511,1.311,1.539,1.311M162.9-9.908h-1.333l.345-1.616h1.333l.473-2.408,2.336-.881-.764,3.289h3.161l-.345,1.616h-3.161l-1.2,5.721a5.4,5.4,0,0,0-.14,1.036,1.449,1.449,0,0,0,1.635,1.644,4.259,4.259,0,0,0,1.711-.4l-.077,1.8a9.079,9.079,0,0,1-2.849.323,2.426,2.426,0,0,1-1.909-.76,3,3,0,0,1-.684-2.083,3.749,3.749,0,0,1,.1-.74ZM176.622,0,177.9-7.243a4.487,4.487,0,0,0,.072-.785,1.734,1.734,0,0,0-1.935-1.991,3.36,3.36,0,0,0-1.564.437,4.5,4.5,0,0,0-1.329,1.017L171.632,0h-2.087l2.807-16.247h2.033l-.948,5.995a4.011,4.011,0,0,1,1.515-1.063,4.884,4.884,0,0,1,1.949-.423,3.144,3.144,0,0,1,2.372.872,3.363,3.363,0,0,1,.845,2.452,6.831,6.831,0,0,1-.107,1.171L178.729,0Z" fill="#231f20"/>
          </g>
        </g>
      </g>
      <g id="g52">
        <g id="g54" clip-path="url(#clip-path-3)">
          <g id="g60" transform="translate(498.78 -175.222)">
            <path id="path62" d="M0,0H1.675c1.749,0,2.86-.96,2.86-2.409,0-1.637-1.184-2.352-2.916-2.371A6.691,6.691,0,0,0,0-4.629ZM-1.639-5.777a17.076,17.076,0,0,1,3.144-.264A5.19,5.19,0,0,1,5.175-5.007a3.161,3.161,0,0,1,1,2.409A3.328,3.328,0,0,1,3.783.639V.7A3.162,3.162,0,0,1,5.645,3.255a20.3,20.3,0,0,0,.979,3.483H4.931a16.444,16.444,0,0,1-.847-3.031C3.707,1.957,3.029,1.3,1.543,1.241H0v5.5H-1.639Z" fill="#231f20"/>
          </g>
          <g id="g64" transform="translate(500.682 -183.652)">
            <path id="path66" d="M0,0A8.9,8.9,0,0,0-8.893,8.891,8.9,8.9,0,0,0,0,17.783,8.9,8.9,0,0,0,8.892,8.891,8.9,8.9,0,0,0,0,0M0,19.352A10.475,10.475,0,0,1-10.463,8.891,10.475,10.475,0,0,1,0-1.569,10.474,10.474,0,0,1,10.461,8.891,10.475,10.475,0,0,1,0,19.352" fill="#231f20"/>
          </g>
        </g>
      </g>
    </g>
  </g>
</svg>
